<svg width="18" height="16" viewBox="0 0 18 16" fill="none" xmlns="http://www.w3.org/2000/svg">
<path fill-rule="evenodd" clip-rule="evenodd" d="M13.8099 10.038C13.7688 9.97901 13.7274 9.92127 13.6862 9.86385C13.3513 9.39706 13.0322 8.95215 13.0322 8.0603V4.73559C13.0322 4.62001 13.0328 4.50521 13.0335 4.3913C13.0408 3.11656 13.0474 1.95337 12.1281 1.06351C11.3397 0.277366 10.0301 0 9.02857 0C7.06976 0 4.88461 0.75761 4.42637 3.2681C4.37786 3.53476 4.56464 3.67435 4.73396 3.71359L6.72853 3.93743C6.91531 3.92759 7.05018 3.73721 7.08634 3.54546C7.25737 2.68038 7.95598 2.26479 8.74096 2.26479C9.1643 2.26479 9.64506 2.42532 9.89565 2.81907C10.154 3.21166 10.1499 3.7359 10.1462 4.20467C10.1458 4.25927 10.1454 4.31313 10.1454 4.36594V4.64462C9.96033 4.66607 9.76641 4.6864 9.56667 4.70734C8.4789 4.82138 7.21853 4.95353 6.27458 5.38262C4.98587 5.9614 4.08091 7.13908 4.08091 8.8701C4.08091 11.0885 5.42751 12.1975 7.16125 12.1975C8.62442 12.1975 9.42515 11.8394 10.5539 10.6462C10.6103 10.7309 10.6609 10.809 10.7087 10.8826C10.9779 11.2978 11.1537 11.5687 11.7337 12.0691C11.8868 12.1538 12.0894 12.1506 12.2251 12.0231C12.6361 11.6441 13.3824 10.9717 13.8031 10.6061C13.9712 10.4629 13.9414 10.2315 13.8099 10.038ZM9.76039 9.07925C9.43367 9.68123 8.91329 10.0495 8.33509 10.0495C7.54671 10.0495 7.0838 9.42525 7.0838 8.50176C7.0838 6.68378 8.65715 6.35381 10.145 6.35381C10.145 6.46259 10.146 6.57195 10.1469 6.6816C10.1542 7.50459 10.1617 8.34389 9.76039 9.07925Z" fill="white"/>
<path d="M16.2699 13.6659C14.2997 15.1894 11.4425 16 8.98182 16C5.53449 16 2.42926 14.6645 0.0795834 12.4412C-0.104724 12.2664 0.0597804 12.0277 0.281208 12.1634C2.81666 13.7097 5.95156 14.6405 9.18934 14.6405C11.3738 14.6405 13.7746 14.1658 15.9836 13.1832C16.3168 13.0355 16.5961 13.4139 16.2699 13.6659Z" fill="white"/>
<path d="M14.7891 12.6047C15.4234 12.5244 16.8379 12.3467 17.0897 12.6845C17.3419 13.022 16.8123 14.4099 16.5736 15.0355L16.5719 15.04C16.5001 15.2287 16.6545 15.304 16.8172 15.161C17.8745 14.2346 18.1477 12.2928 17.931 12.0114C17.7161 11.7339 15.8677 11.4936 14.7398 12.3239C14.5664 12.4527 14.5961 12.6282 14.7891 12.6047Z" fill="white"/>
</svg>
