<svg width="96" height="96" viewBox="0 0 96 96" fill="none" xmlns="http://www.w3.org/2000/svg">
<rect width="96" height="96" fill="white"/>
<g clip-path="url(#clip0_1_289)">
<path d="M48 71C60.7025 71 71 60.7025 71 48C71 35.2975 60.7025 25 48 25C35.2975 25 25 35.2975 25 48C25 60.7025 35.2975 71 48 71Z" fill="#7D2AE7"/>
<path d="M48 71C60.7025 71 71 60.7025 71 48C71 35.2975 60.7025 25 48 25C35.2975 25 25 35.2975 25 48C25 60.7025 35.2975 71 48 71Z" fill="url(#paint0_radial_1_289)"/>
<path d="M48 71C60.7025 71 71 60.7025 71 48C71 35.2975 60.7025 25 48 25C35.2975 25 25 35.2975 25 48C25 60.7025 35.2975 71 48 71Z" fill="url(#paint1_radial_1_289)"/>
<path d="M48 71C60.7025 71 71 60.7025 71 48C71 35.2975 60.7025 25 48 25C35.2975 25 25 35.2975 25 48C25 60.7025 35.2975 71 48 71Z" fill="url(#paint2_radial_1_289)"/>
<path d="M48 71C60.7025 71 71 60.7025 71 48C71 35.2975 60.7025 25 48 25C35.2975 25 25 35.2975 25 48C25 60.7025 35.2975 71 48 71Z" fill="url(#paint3_radial_1_289)"/>
<path d="M57.9297 52.7182C57.7399 52.7182 57.5728 52.8784 57.399 53.2285C55.436 57.209 52.0456 60.0254 48.1222 60.0254C43.5856 60.0254 40.7762 55.9302 40.7762 50.2727C40.7762 40.6893 46.1158 35.1484 50.8058 35.1484C52.9973 35.1484 54.3356 36.5256 54.3356 38.7173C54.3356 41.3184 52.8578 42.6957 52.8578 43.613C52.8578 44.0248 53.114 44.2742 53.6219 44.2742C55.6626 44.2742 58.0578 41.9293 58.0578 38.6166C58.0578 35.4046 55.2622 33.0437 50.5724 33.0437C42.8215 33.0437 35.9331 40.2295 35.9331 50.1719C35.9331 57.868 40.3278 62.9537 47.1087 62.9537C54.3059 62.9537 58.4674 55.7929 58.4674 53.4687C58.4674 52.954 58.2043 52.7182 57.9297 52.7182Z" fill="white"/>
</g>
<defs>
<radialGradient id="paint0_radial_1_289" cx="0" cy="0" r="1" gradientUnits="userSpaceOnUse" gradientTransform="translate(33.8855 65.7708) rotate(-49.416) scale(35.5771)">
<stop stop-color="#6420FF"/>
<stop offset="1" stop-color="#6420FF" stop-opacity="0"/>
</radialGradient>
<radialGradient id="paint1_radial_1_289" cx="0" cy="0" r="1" gradientUnits="userSpaceOnUse" gradientTransform="translate(37.1778 30.2294) rotate(54.703) scale(40.1197)">
<stop stop-color="#00C4CC"/>
<stop offset="1" stop-color="#00C4CC" stop-opacity="0"/>
</radialGradient>
<radialGradient id="paint2_radial_1_289" cx="0" cy="0" r="1" gradientUnits="userSpaceOnUse" gradientTransform="translate(33.8853 65.7705) rotate(-45.1954) scale(35.1464 16.1643)">
<stop stop-color="#6420FF"/>
<stop offset="1" stop-color="#6420FF" stop-opacity="0"/>
</radialGradient>
<radialGradient id="paint3_radial_1_289" cx="0" cy="0" r="1" gradientUnits="userSpaceOnUse" gradientTransform="translate(43.8116 31.1979) rotate(66.5198) scale(36.2156 60.6692)">
<stop stop-color="#00C4CC" stop-opacity="0.725916"/>
<stop offset="0.0001" stop-color="#00C4CC"/>
<stop offset="1" stop-color="#00C4CC" stop-opacity="0"/>
</radialGradient>
<clipPath id="clip0_1_289">
<rect width="46" height="46" fill="white" transform="translate(25 25)"/>
</clipPath>
</defs>
</svg>
