<svg width="96" height="96" viewBox="0 0 96 96" fill="none" xmlns="http://www.w3.org/2000/svg">
<rect width="96" height="96" fill="white"/>
<path d="M34.8976 34.3105C36.1945 35.3641 36.6811 35.2837 39.1164 35.1213L62.0761 33.7427C62.5629 33.7427 62.158 33.2569 61.9958 33.1761L58.1825 30.4196C57.452 29.8523 56.4784 29.2027 54.613 29.3652L32.3811 30.9867C31.5703 31.0671 31.4084 31.4725 31.7313 31.7975L34.8976 34.3105ZM36.276 39.6612V63.8188C36.276 65.117 36.9248 65.6029 38.3851 65.5225L63.6177 64.0625C65.0787 63.9822 65.2415 63.0889 65.2415 62.0344V38.039C65.2415 36.986 64.8365 36.4182 63.942 36.4992L37.5737 38.039C36.6006 38.1208 36.276 38.6075 36.276 39.6612ZM61.1857 40.9571C61.3475 41.6874 61.1857 42.4171 60.4539 42.4992L59.2382 42.7414V60.576C58.1825 61.1434 57.2092 61.4677 56.3981 61.4677C55.0995 61.4677 54.7742 61.0621 53.8015 59.8467L45.8491 47.3624V59.4415L48.3655 60.0092C48.3655 60.0092 48.3655 61.4677 46.3353 61.4677L40.7383 61.7923C40.5757 61.4677 40.7383 60.6578 41.306 60.4953L42.7666 60.0907V44.12L40.7386 43.9575C40.576 43.2272 40.9811 42.1742 42.1177 42.0925L48.1221 41.6877L56.3981 54.3346V43.1468L54.2881 42.9046C54.1261 42.0117 54.7742 41.3634 55.5857 41.283L61.1857 40.9571ZM30.5145 28.798L53.6392 27.0951C56.4791 26.8515 57.2095 27.0147 58.9945 28.3112L66.3759 33.4994C67.5941 34.3916 68 34.6345 68 35.6071V64.0625C68 65.8456 67.3504 66.9004 65.079 67.0617L38.2245 68.6835C36.5195 68.7648 35.708 68.5217 34.8151 67.386L29.3791 60.3332C28.4051 59.035 28 58.0636 28 56.9272V31.6344C28 30.176 28.6498 28.9595 30.5145 28.798Z" fill="black"/>
</svg>
