<svg width="96" height="96" viewBox="0 0 96 96" fill="none" xmlns="http://www.w3.org/2000/svg">
<rect width="96" height="96" fill="white"/>
<g clip-path="url(#clip0_1_184)">
<path d="M29.2509 61.9273L31.1472 65.2028C31.5412 65.8923 32.1077 66.4342 32.7726 66.8282L39.5452 55.1054H26C26 55.8689 26.197 56.6323 26.5911 57.3219L29.2509 61.9273Z" fill="#0066DA"/>
<path d="M47.5 41.3139L40.7274 29.5911C40.0624 29.9851 39.496 30.5269 39.1019 31.2165L26.5911 52.8889C26.2043 53.5636 26.0005 54.3277 26 55.1054H39.5452L47.5 41.3139Z" fill="#00AC47"/>
<path d="M62.2272 66.8282C62.8922 66.4342 63.4586 65.8923 63.8527 65.2028L64.6407 63.8482L68.4088 57.3219C68.8028 56.6323 68.9998 55.8689 68.9998 55.1054H55.4536L58.336 60.7698L62.2272 66.8282Z" fill="#EA4335"/>
<path d="M47.4999 41.3139L54.2725 29.5911C53.6076 29.197 52.8441 29 52.056 29H42.9438C42.1557 29 41.3922 29.2216 40.7273 29.5911L47.4999 41.3139Z" fill="#00832D"/>
<path d="M55.4548 55.1054H39.5453L32.7727 66.8282C33.4377 67.2222 34.2011 67.4193 34.9892 67.4193H60.011C60.7991 67.4193 61.5625 67.1976 62.2275 66.8282L55.4548 55.1054Z" fill="#2684FC"/>
<path d="M62.1535 42.0527L55.8981 31.2165C55.504 30.5269 54.9376 29.9851 54.2726 29.5911L47.5 41.3139L55.4548 55.1054H68.9754C68.9754 54.3419 68.7784 53.5785 68.3843 52.8889L62.1535 42.0527Z" fill="#FFBA00"/>
</g>
<defs>
<clipPath id="clip0_1_184">
<rect width="43" height="38.4192" fill="white" transform="translate(26 29)"/>
</clipPath>
</defs>
</svg>
