<svg width="96" height="96" viewBox="0 0 96 96" fill="none" xmlns="http://www.w3.org/2000/svg">
<rect width="96" height="96" fill="white"/>
<path d="M36.1868 52.2807L37.0037 50.3832C37.8866 51.0421 39.0593 51.3847 40.2189 51.3847C41.0754 51.3847 41.6157 51.0552 41.6157 50.5545C41.6025 49.1578 36.4898 50.2515 36.4503 46.7464C36.4371 44.9675 38.0184 43.5971 40.2584 43.5971C41.5893 43.5971 42.9202 43.9265 43.8689 44.6776L43.1047 46.6146C42.235 46.0612 41.1545 45.6659 40.1267 45.6659C39.4283 45.6659 38.9671 45.9953 38.9671 46.417C38.9803 47.7874 44.1325 47.0363 44.1852 50.3832C44.1852 52.2016 42.6435 53.4798 40.4297 53.4798C38.809 53.4798 37.32 53.0977 36.1868 52.2807Z" fill="black"/>
<path d="M67.5348 49.698C67.1263 50.4096 66.362 50.8971 65.4792 50.8971C64.1747 50.8971 63.1205 49.843 63.1205 48.5385C63.1205 47.2339 64.1747 46.1798 65.4792 46.1798C66.362 46.1798 67.1263 46.6673 67.5348 47.3789L69.788 46.1271C68.9447 44.6249 67.324 43.5971 65.4792 43.5971C62.7516 43.5971 60.5378 45.8108 60.5378 48.5385C60.5378 51.2661 62.7516 53.4798 65.4792 53.4798C67.3371 53.4798 68.9447 52.4652 69.788 50.9498L67.5348 49.698Z" fill="black"/>
<path d="M48.1385 39.4991H45.3186V53.2953H48.1385V39.4991Z" fill="black"/>
<path d="M70.8948 39.4991V53.2953H73.7146V49.1578L77.0616 53.2953H80.6721L76.4159 48.3803L80.3558 43.7948H76.9035L73.7146 47.6029V39.4991H70.8948Z" fill="black"/>
<path d="M56.5188 49.7244C56.1103 50.3964 55.267 50.8971 54.3183 50.8971C53.0137 50.8971 51.9596 49.843 51.9596 48.5385C51.9596 47.2339 53.0137 46.1798 54.3183 46.1798C55.267 46.1798 56.1103 46.7069 56.5188 47.3921V49.7244ZM56.5188 43.7948V44.9148C56.0576 44.1374 54.9112 43.5971 53.7121 43.5971C51.2349 43.5971 49.2847 45.7845 49.2847 48.5253C49.2847 51.2661 51.2349 53.4798 53.7121 53.4798C54.9112 53.4798 56.0576 52.9395 56.5188 52.1621V53.2821H59.3387V43.7948H56.5188Z" fill="black"/>
<path d="M18.7539 49.7112C18.7539 50.6731 17.9764 51.4506 17.0145 51.4506C16.0526 51.4506 15.2751 50.6731 15.2751 49.7112C15.2751 48.7493 16.0526 47.9719 17.0145 47.9719H18.7539V49.7112Z" fill="#E01E5A"/>
<path d="M19.6235 49.7112C19.6235 48.7493 20.401 47.9719 21.3629 47.9719C22.3248 47.9719 23.1022 48.7493 23.1022 49.7112V54.0596C23.1022 55.0215 22.3248 55.799 21.3629 55.799C20.401 55.799 19.6235 55.0215 19.6235 54.0596V49.7112Z" fill="#E01E5A"/>
<path d="M21.3629 42.7274C20.401 42.7274 19.6235 41.95 19.6235 40.9881C19.6235 40.0262 20.401 39.2487 21.3629 39.2487C22.3248 39.2487 23.1022 40.0262 23.1022 40.9881V42.7274H21.3629Z" fill="#36C5F0"/>
<path d="M21.3629 43.6103C22.3248 43.6103 23.1022 44.3877 23.1022 45.3496C23.1022 46.3116 22.3248 47.089 21.3629 47.089H17.0013C16.0394 47.089 15.262 46.3116 15.262 45.3496C15.262 44.3877 16.0394 43.6103 17.0013 43.6103H21.3629Z" fill="#36C5F0"/>
<path d="M28.3335 45.3496C28.3335 44.3877 29.1109 43.6103 30.0729 43.6103C31.0348 43.6103 31.8122 44.3877 31.8122 45.3496C31.8122 46.3116 31.0348 47.089 30.0729 47.089H28.3335V45.3496Z" fill="#2EB67D"/>
<path d="M27.4638 45.3496C27.4638 46.3115 26.6864 47.089 25.7245 47.089C24.7625 47.089 23.9851 46.3115 23.9851 45.3496V40.9881C23.9851 40.0262 24.7625 39.2487 25.7245 39.2487C26.6864 39.2487 27.4638 40.0262 27.4638 40.9881V45.3496Z" fill="#2EB67D"/>
<path d="M25.7245 52.3203C26.6864 52.3203 27.4638 53.0977 27.4638 54.0596C27.4638 55.0215 26.6864 55.799 25.7245 55.799C24.7625 55.799 23.9851 55.0215 23.9851 54.0596V52.3203H25.7245Z" fill="#ECB22E"/>
<path d="M25.7245 51.4506C24.7625 51.4506 23.9851 50.6731 23.9851 49.7112C23.9851 48.7493 24.7625 47.9719 25.7245 47.9719H30.086C31.0479 47.9719 31.8254 48.7493 31.8254 49.7112C31.8254 50.6731 31.0479 51.4506 30.086 51.4506H25.7245Z" fill="#ECB22E"/>
</svg>
