<svg width="96" height="96" viewBox="0 0 96 96" fill="none" xmlns="http://www.w3.org/2000/svg">
<rect width="96" height="96" fill="white"/>
<g clip-path="url(#clip0_1_331)">
<path d="M40.9829 54.6588V41.4276H43.4121V54.6588H40.9829Z" fill="#222222"/>
<path d="M64.2822 45.6674H66.602V46.7643C67.095 45.8872 68.2462 45.4117 69.2323 45.4117C70.4566 45.4117 71.4426 45.9419 71.8992 46.9102C72.6111 45.8132 73.5617 45.4117 74.7489 45.4117C76.4109 45.4117 78 46.4169 78 48.8289V54.6589H75.6438V49.3228C75.6438 48.354 75.1685 47.6232 74.0542 47.6232C73.0128 47.6232 72.3917 48.4274 72.3917 49.3962V54.6594H69.9813V49.3228C69.9813 48.354 69.4882 47.6232 68.3917 47.6232C67.3321 47.6232 66.7108 48.4092 66.7108 49.3962V54.6594H64.2822V45.6674Z" fill="#222222"/>
<path d="M48.9019 54.9193C46.1653 54.9193 44.1836 52.8895 44.1836 50.1633C44.1836 47.4805 46.1589 45.4025 48.9019 45.4025C51.6583 45.4025 53.6203 47.4998 53.6203 50.1633C53.6203 52.8697 51.6374 54.9193 48.9019 54.9193ZM48.9019 47.6033C47.4905 47.6033 46.3424 48.7516 46.3424 50.1639C46.3424 51.576 47.4905 52.7244 48.9019 52.7244C50.3134 52.7244 51.461 51.576 51.461 50.1639C51.461 48.7516 50.3134 47.6033 48.9019 47.6033Z" fill="#222222"/>
<path d="M58.8092 54.9193C56.0725 54.9193 54.0908 52.8895 54.0908 50.1633C54.0908 47.4805 56.0661 45.4025 58.8092 45.4025C61.5655 45.4025 63.5275 47.4998 63.5275 50.1633C63.5275 52.8697 61.5436 54.9193 58.8092 54.9193ZM58.8092 47.5727C57.3816 47.5727 56.2201 48.735 56.2201 50.1627C56.2201 51.5905 57.3816 52.7528 58.8092 52.7528C60.2367 52.7528 61.3982 51.5905 61.3982 50.1627C61.3977 48.735 60.2362 47.5727 58.8092 47.5727Z" fill="#222222"/>
<path d="M36.0869 47.0377H30.798L35.3784 44.3932L34.3726 42.6505L29.7921 45.295L32.4361 40.7149L30.6933 39.7084L28.0494 44.2885V39H26.0375V44.289L23.3926 39.7084L21.6504 40.7144L24.2948 45.2945L19.7144 42.6505L18.7084 44.3927L23.2888 47.0372H18V49.0492H23.2883L18.7084 51.6937L19.7144 53.4364L24.2943 50.7924L21.6499 55.3725L23.3926 56.3784L26.037 51.7979V57.0869H28.0489V51.7984L30.6928 56.3784L32.4355 55.3725L29.7911 50.792L34.3715 53.4364L35.3775 51.6937L30.7976 49.0497H36.0859V47.0377H36.0869ZM27.0434 50.7797C25.5264 50.7797 24.2968 49.5502 24.2968 48.0331C24.2968 46.516 25.5264 45.2864 27.0434 45.2864C28.5605 45.2864 29.79 46.516 29.79 48.0331C29.79 49.5502 28.5605 50.7797 27.0434 50.7797Z" fill="#625DF5"/>
</g>
<defs>
<clipPath id="clip0_1_331">
<rect width="60" height="18.124" fill="white" transform="translate(18 39)"/>
</clipPath>
</defs>
</svg>
