<svg width="96" height="96" viewBox="0 0 96 96" fill="none" xmlns="http://www.w3.org/2000/svg">
<rect width="96" height="96" fill="white"/>
<g clip-path="url(#clip0_1_413)">
<path fill-rule="evenodd" clip-rule="evenodd" d="M47.9315 25C35.251 25 25 35.3265 25 48.1019C25 58.3139 31.5681 66.9581 40.6799 70.0176C41.8191 70.2476 42.2364 69.5205 42.2364 68.9089C42.2364 68.3733 42.1988 66.5375 42.1988 64.6248C35.8199 66.002 34.4915 61.8709 34.4915 61.8709C33.4663 59.1935 31.9474 58.5054 31.9474 58.5054C29.8596 57.0902 32.0995 57.0902 32.0995 57.0902C34.4154 57.2432 35.6307 59.4615 35.6307 59.4615C37.6805 62.98 40.9836 61.9859 42.3124 61.3738C42.5021 59.8821 43.1099 58.8494 43.7553 58.2758C38.6676 57.7403 33.3147 55.7515 33.3147 46.8777C33.3147 44.3533 34.2253 42.288 35.6682 40.6818C35.4406 40.1082 34.6431 37.7364 35.8964 34.5619C35.8964 34.5619 37.8326 33.9498 42.1984 36.9332C44.0675 36.4276 45.9951 36.1703 47.9315 36.1681C49.8677 36.1681 51.8415 36.4362 53.6641 36.9332C58.0303 33.9498 59.9666 34.5619 59.9666 34.5619C61.2198 37.7364 60.4219 40.1082 60.1942 40.6818C61.6751 42.288 62.5482 44.3533 62.5482 46.8777C62.5482 55.7515 57.1953 57.7018 52.0696 58.2758C52.9051 59.0024 53.6261 60.3792 53.6261 62.5595C53.6261 65.6574 53.5885 68.1438 53.5885 68.9084C53.5885 69.5205 54.0063 70.2476 55.145 70.018C64.2568 66.9576 70.8249 58.3139 70.8249 48.1019C70.8625 35.3265 60.574 25 47.9315 25Z" fill="#24292F"/>
</g>
<defs>
<clipPath id="clip0_1_413">
<rect width="46" height="45.0612" fill="white" transform="translate(25 25)"/>
</clipPath>
</defs>
</svg>
