<svg width="96" height="96" viewBox="0 0 96 96" fill="none" xmlns="http://www.w3.org/2000/svg">
<rect width="96" height="96" fill="white"/>
<path d="M54.5154 45.8259C55.6251 45.8259 56.6752 46.5061 56.9019 47.9737H51.9619C52.1528 46.685 53.1193 45.8259 54.5154 45.8259ZM56.7348 50.1454C56.353 50.7301 55.6251 51.1835 54.6228 51.1835C53.2506 51.1835 52.1886 50.4318 51.9381 49.0954H58.1428C58.1786 48.9044 58.1906 48.7135 58.1906 48.5226C58.1906 46.4464 56.7468 44.6088 54.5035 44.6088C52.1886 44.6088 50.6255 46.3151 50.6255 48.4987C50.6255 50.7181 52.2125 52.3887 54.5989 52.3887C56.0785 52.3887 57.2002 51.7204 57.8565 50.7181L56.7348 50.1454ZM48.7283 41.399H50.017V52.2097H48.7283V41.399ZM65.3618 47.6635V52.2097H64.0732V47.7351C64.0732 46.518 63.3811 45.8378 62.2356 45.8378C61.0543 45.8378 60.0878 46.5299 60.0878 48.284V52.2097H58.7991V44.8117H60.0878V45.8736C60.6367 45.0026 61.4481 44.6208 62.4862 44.6208C64.2283 44.6088 65.3618 45.7663 65.3618 47.6635ZM72.4615 48.4987C72.4615 46.9833 71.316 45.8498 69.8245 45.8498C68.3449 45.8498 67.1994 46.9953 67.1994 48.4987C67.1994 50.0141 68.3449 51.1477 69.8245 51.1477C71.328 51.1596 72.4615 50.0141 72.4615 48.4987ZM73.7502 41.399V52.2097H72.4615V50.9329C71.8649 51.8398 70.9223 52.4006 69.6574 52.4006C67.6051 52.4006 65.9107 50.6943 65.9107 48.5107C65.9107 46.3271 67.5932 44.6208 69.6574 44.6208C70.9103 44.6208 71.8649 45.1816 72.4615 46.0884V41.411H73.7502V41.399ZM74.7883 41.399H76.077V52.2097H74.7883V41.399ZM46.4373 48.4987C46.4373 46.9833 45.2918 45.8498 43.8003 45.8498C42.3207 45.8498 41.1752 46.9953 41.1752 48.4987C41.1752 50.0141 42.3207 51.1477 43.8003 51.1477C45.2918 51.1596 46.4373 50.0141 46.4373 48.4987ZM47.726 44.7997V52.1977H46.4373V50.921C45.8407 51.8278 44.898 52.3887 43.6451 52.3887C41.5928 52.3887 39.8984 50.6823 39.8984 48.4987C39.8984 46.3151 41.5809 44.6088 43.6451 44.6088C44.898 44.6088 45.8526 45.1696 46.4373 46.0765V44.7997H47.726ZM37.9773 50.7778C35.9011 51.5415 33.5982 50.4795 32.8226 48.4033C32.0589 46.3271 33.1209 44.0241 35.1971 43.2485C36.5335 42.7593 38.037 43.0099 39.1347 43.9168C39.3615 44.1077 39.5643 44.3105 39.7433 44.5492L40.853 43.7378C39.0393 41.3752 35.6505 40.9218 33.2879 42.7355C30.9254 44.5492 30.4719 47.9379 32.2856 50.3005C34.0993 52.6631 37.4881 53.1165 39.8507 51.3028C39.8626 51.2909 39.8626 51.2909 39.8745 51.279L39.1347 50.1096C38.8006 50.396 38.4069 50.6227 37.9773 50.7778ZM82.2937 44.7997V48.9999C82.2937 50.3602 81.5062 51.2193 80.301 51.2193C79.0959 51.2193 78.2248 50.3602 78.2248 48.9999V44.7997H76.9242V48.8806C76.9242 51.0164 78.2606 52.4006 80.313 52.4006C82.0909 52.4006 82.3653 51.279 82.3653 51.2551V52.7705C82.3653 54.274 81.709 55.1092 80.3487 55.1092C79.3464 55.1092 78.4873 54.3694 78.3561 53.379L77.1867 53.7847C77.5327 55.2524 78.8453 56.2905 80.3487 56.2905C82.4608 56.2905 83.6063 54.9064 83.6063 52.7705V44.8117H82.2937V44.7997Z" fill="#006BFF"/>
<path d="M22.5011 49.1192C22.0118 49.5607 21.3914 50.1096 20.2697 50.1096H19.5896C18.7782 50.1096 18.0384 49.8113 17.5134 49.2863C17.0003 48.7612 16.7139 48.0453 16.7139 47.2697V46.3509C16.7139 45.5753 17.0003 44.8594 17.5134 44.3344C18.0384 43.7974 18.7782 43.5111 19.5896 43.5111H20.2578C21.3794 43.5111 21.9999 44.0599 22.4891 44.5014C23.0022 44.9549 23.4437 45.3486 24.625 45.3486C24.804 45.3486 24.983 45.3367 25.1619 45.3009V45.289C25.0904 45.11 25.0068 44.9429 24.9114 44.7759L24.1238 43.4037C23.396 42.1508 22.0596 41.3752 20.6038 41.3752H19.0407C17.585 41.3752 16.2486 42.1508 15.5207 43.4037L14.7332 44.7759C14.0053 46.0288 14.0053 47.58 14.7332 48.8328L15.5207 50.205C16.2486 51.4579 17.585 52.2335 19.0407 52.2335H20.6158C22.0715 52.2335 23.4079 51.4579 24.1358 50.205L24.9233 48.8328C25.0188 48.6658 25.1023 48.4987 25.1739 48.3198V48.3078C24.9949 48.284 24.8159 48.2601 24.6369 48.2601C23.4556 48.272 23.0141 48.6658 22.5011 49.1192Z" fill="#006BFF"/>
<path d="M20.2699 44.3344H19.5897C18.3607 44.3344 17.5493 45.2174 17.5493 46.339V47.2578C17.5493 48.3914 18.3607 49.2624 19.5897 49.2624H20.2579C22.0597 49.2624 21.9165 47.4249 24.6371 47.4249C24.8996 47.4249 25.1502 47.4487 25.4007 47.4965C25.4843 47.0311 25.4843 46.5538 25.4007 46.0885C25.1502 46.1362 24.8877 46.16 24.6371 46.16C21.9165 46.172 22.0597 44.3344 20.2699 44.3344Z" fill="#006BFF"/>
<path d="M26.9638 48.1766C26.4984 47.8425 25.9734 47.6039 25.4007 47.5084V47.5204C25.3529 47.7948 25.2813 48.0573 25.1739 48.3079C25.6393 48.3795 26.0808 48.5585 26.4626 48.8448V48.8568C25.3291 52.5319 21.4391 54.5843 17.764 53.4507C14.0889 52.3171 12.0365 48.4272 13.1701 44.7521C14.3037 41.0769 18.1936 39.0246 21.8687 40.1582C24.0642 40.8383 25.7825 42.5565 26.4626 44.7521V44.764C26.0808 45.0385 25.6393 45.2174 25.1739 45.289C25.2813 45.5396 25.3529 45.814 25.4007 46.0766V46.0885C25.9615 45.9811 26.4984 45.7544 26.9638 45.4203C27.4053 45.0862 27.3217 44.7163 27.2502 44.5015C25.9853 40.3849 21.6181 38.0819 17.5015 39.3468C13.3849 40.6116 11.0819 44.9788 12.3468 49.0954C13.6116 53.212 17.9788 55.515 22.0954 54.2501C24.5535 53.4865 26.4865 51.5654 27.2502 49.0954C27.3217 48.8806 27.4172 48.5107 26.9638 48.1766Z" fill="#006BFF"/>
<path d="M25.1738 45.289C24.9948 45.3128 24.8159 45.3367 24.6369 45.3367C23.4556 45.3367 23.0141 44.9429 22.501 44.4895C21.9999 44.048 21.3913 43.4991 20.2697 43.4991H19.5895C18.7781 43.4991 18.0383 43.7975 17.5133 44.3225C17.0002 44.8475 16.7139 45.5634 16.7139 46.339V47.2578C16.7139 48.0334 17.0002 48.7493 17.5133 49.2744C18.0383 49.8113 18.7781 50.0977 19.5895 50.0977H20.2577C21.3794 50.0977 21.9999 49.5488 22.4891 49.1073C23.0022 48.6539 23.4437 48.2601 24.6249 48.2601C24.8039 48.2601 24.9829 48.272 25.1619 48.3078C25.2693 48.0573 25.3409 47.7828 25.3886 47.5203V47.5084C25.138 47.4607 24.8755 47.4368 24.6249 47.4368C21.9044 47.4368 22.0476 49.2744 20.2458 49.2744H19.5895C18.3605 49.2744 17.5491 48.3914 17.5491 47.2578V46.339C17.5491 45.2055 18.3605 44.3344 19.5895 44.3344H20.2577C22.0595 44.3344 21.9163 46.172 24.6369 46.172C24.8994 46.172 25.15 46.1481 25.4005 46.1004V46.0884C25.3528 45.814 25.2812 45.5515 25.1738 45.289Z" fill="#0AE8F0"/>
<path d="M25.1738 45.289C24.9948 45.3128 24.8159 45.3367 24.6369 45.3367C23.4556 45.3367 23.0141 44.9429 22.501 44.4895C21.9999 44.048 21.3913 43.4991 20.2697 43.4991H19.5895C18.7781 43.4991 18.0383 43.7975 17.5133 44.3225C17.0002 44.8475 16.7139 45.5634 16.7139 46.339V47.2578C16.7139 48.0334 17.0002 48.7493 17.5133 49.2744C18.0383 49.8113 18.7781 50.0977 19.5895 50.0977H20.2577C21.3794 50.0977 21.9999 49.5488 22.4891 49.1073C23.0022 48.6539 23.4437 48.2601 24.6249 48.2601C24.8039 48.2601 24.9829 48.272 25.1619 48.3078C25.2693 48.0573 25.3409 47.7828 25.3886 47.5203V47.5084C25.138 47.4607 24.8755 47.4368 24.6249 47.4368C21.9044 47.4368 22.0476 49.2744 20.2458 49.2744H19.5895C18.3605 49.2744 17.5491 48.3914 17.5491 47.2578V46.339C17.5491 45.2055 18.3605 44.3344 19.5895 44.3344H20.2577C22.0595 44.3344 21.9163 46.172 24.6369 46.172C24.8994 46.172 25.15 46.1481 25.4005 46.1004V46.0884C25.3528 45.814 25.2812 45.5515 25.1738 45.289Z" fill="#0AE8F0"/>
</svg>
