<svg width="96" height="96" viewBox="0 0 96 96" fill="none" xmlns="http://www.w3.org/2000/svg">
<rect width="96" height="96" fill="white"/>
<g clip-path="url(#clip0_1_310)">
<path d="M53.2038 46.3533H51.783C51.7538 46.237 51.732 46.1021 51.7175 45.949C51.6886 45.651 51.6886 45.351 51.7175 45.053C51.732 44.9002 51.7538 44.7655 51.783 44.6485H55.3238V55.8607C55.1466 55.8916 54.9678 55.9133 54.7884 55.926C54.6101 55.9396 54.4314 55.9469 54.2526 55.9476C54.0813 55.9465 53.9101 55.9393 53.7393 55.926C53.5599 55.9132 53.3813 55.8914 53.2041 55.8604V46.3528V46.353L53.2038 46.3533ZM65.5302 49.1729C65.5302 48.7648 65.4755 48.3752 65.3665 48.0033C65.2571 47.632 65.0964 47.3079 64.8857 47.0309C64.674 46.7543 64.4046 46.5319 64.0767 46.3644C63.749 46.1969 63.3591 46.113 62.9074 46.113C62.0187 46.113 61.3374 46.3829 60.864 46.9218C60.3904 47.4608 60.1028 48.2111 60.0007 49.1729H65.5304H65.5302ZM59.9789 50.7901C60.0081 52.014 60.325 52.9103 60.9297 53.4783C61.5341 54.0464 62.4267 54.331 63.6069 54.331C64.6412 54.331 65.6247 54.1486 66.5573 53.7844C66.6735 54.0029 66.7682 54.2689 66.8411 54.5821C66.9127 54.8871 66.9566 55.198 66.9722 55.5109C66.4917 55.7154 65.9631 55.8677 65.388 55.97C64.812 56.0716 64.1747 56.1229 63.4757 56.1229C62.4554 56.1229 61.5811 55.9804 60.8529 55.6966C60.1242 55.4122 59.5232 55.0114 59.0497 54.4945C58.5762 53.9774 58.23 53.3653 58.0115 52.6585C57.7931 51.952 57.6835 51.176 57.6835 50.3309C57.6835 49.5005 57.7891 48.7245 58.0004 48.0031C58.2113 47.2822 58.5362 46.6556 58.9728 46.1238C59.4101 45.5917 59.9601 45.1694 60.6231 44.8561C61.2858 44.5428 62.0689 44.386 62.9726 44.386C63.7448 44.386 64.4223 44.5173 65.0053 44.7795C65.5878 45.0417 66.0761 45.4024 66.4696 45.8614C66.8629 46.3204 67.1616 46.8668 67.3656 47.5003C67.5695 48.1344 67.6718 48.8227 67.6718 49.566C67.6718 49.7701 67.6641 49.9848 67.6496 50.2106C67.6376 50.4038 67.6231 50.5968 67.6061 50.7897H59.9784L59.9787 50.79L59.9789 50.7901ZM70.0554 44.6485C70.2075 44.6209 70.3606 44.5991 70.5143 44.5831C70.6597 44.5688 70.813 44.5614 70.9733 44.5614C71.1336 44.5614 71.2936 44.5688 71.4541 44.5831C71.6143 44.5979 71.7601 44.6198 71.8913 44.6485C71.9346 44.8672 71.9784 45.1552 72.022 45.5118C72.0656 45.8689 72.0879 46.171 72.0879 46.4188C72.3937 45.9236 72.7981 45.4935 73.3006 45.1291C73.8033 44.7651 74.448 44.5827 75.2347 44.5827C75.3512 44.5827 75.4714 44.5866 75.5953 44.5939C75.7013 44.5996 75.8073 44.6103 75.9122 44.6264C75.9412 44.7577 75.9635 44.8963 75.9779 45.0418C75.9922 45.1874 75.9995 45.3405 75.9995 45.5007C75.9995 45.6756 75.9887 45.8579 75.9669 46.0469C75.9459 46.2296 75.9205 46.4118 75.8906 46.5932C75.7725 46.5642 75.6513 46.5495 75.5297 46.5496H75.2345C74.8412 46.5496 74.4659 46.6043 74.109 46.7134C73.7517 46.8228 73.4313 47.0159 73.1473 47.2925C72.8634 47.5695 72.6373 47.9485 72.4701 48.4293C72.3022 48.9102 72.2186 49.5294 72.2186 50.2869V55.8604C72.0413 55.8912 71.8626 55.9132 71.683 55.9258C71.4866 55.9404 71.308 55.9475 71.1478 55.9475C70.9691 55.9468 70.7904 55.9396 70.6122 55.9258C70.4256 55.9123 70.2396 55.8905 70.0548 55.8605V44.6486L70.0554 44.6485ZM54.7162 38.6617C54.7162 38.9233 54.669 39.1827 54.5768 39.4275C54.3319 39.5197 54.0724 39.567 53.8107 39.5671H53.8075C53.5458 39.5671 53.2863 39.5199 53.0414 39.4276C52.9491 39.1828 52.9018 38.9233 52.9018 38.6616V38.6581C52.9018 38.3885 52.9513 38.1303 53.0409 37.8921C53.2858 37.7997 53.5454 37.7525 53.8072 37.7526H53.8101C54.0798 37.7526 54.3379 37.8021 54.5762 37.8921C54.6685 38.1369 54.7158 38.3965 54.7156 38.6581V38.6616H54.716L54.7162 38.6617ZM57.3868 38.0552H55.2691L56.7664 36.5578C56.5309 36.2272 56.2419 35.9382 55.9111 35.7028L54.4136 37.2002V35.0824C54.2145 35.0489 54.013 35.032 53.811 35.0319H53.8072C53.6017 35.0319 53.4005 35.0495 53.2044 35.0824V37.2002L51.7066 35.7027C51.5416 35.8201 51.3868 35.9511 51.2438 36.0944L51.2431 36.0951C51.1 36.2383 50.9691 36.3931 50.8517 36.5579L52.3496 38.0552H50.2314C50.2314 38.0552 50.1811 38.4531 50.1811 38.6587V38.6612C50.1811 38.8669 50.1985 39.0684 50.2316 39.2646H52.3497L50.8516 40.7618C51.0872 41.0924 51.3763 41.3814 51.7069 41.617L53.2046 40.1197V42.2376C53.4004 42.2705 53.6013 42.2878 53.8065 42.288H53.8116C54.0133 42.2878 54.2146 42.271 54.4135 42.2376V40.1197L55.9113 41.6174C56.0762 41.4998 56.2312 41.3688 56.3744 41.2257H56.3748C56.5178 41.0823 56.6486 40.9274 56.766 40.7625L55.2688 39.2647H57.3869C57.4197 39.0687 57.437 38.8678 57.437 38.6626V38.6573C57.437 38.4556 57.4202 38.2544 57.3869 38.0554L57.3868 38.0552ZM19 55.5549L24.9011 46.3752H19.6993C19.6557 46.1129 19.634 45.8218 19.634 45.5011C19.634 45.1952 19.6561 44.9108 19.6997 44.6484H28.1141L28.2235 44.9331L22.2788 54.1342H27.8518C27.8954 54.4257 27.9174 54.7242 27.9174 55.03C27.9174 55.3219 27.8955 55.5985 27.8519 55.8607H19.1094L19 55.5545V55.5549ZM36.0254 50.5933C35.8069 50.5644 35.53 50.5356 35.195 50.5061C34.8598 50.4772 34.5757 50.4624 34.3429 50.4624C33.4394 50.4624 32.7509 50.63 32.2777 50.9651C31.8038 51.3005 31.5675 51.8102 31.5675 52.495C31.5675 52.9321 31.6473 53.2745 31.8077 53.5222C31.9677 53.7702 32.1683 53.9592 32.4087 54.0904C32.6492 54.2215 32.9148 54.3018 33.2061 54.331C33.4974 54.3601 33.7744 54.3745 34.0366 54.3745C34.3718 54.3745 34.7177 54.3563 35.0748 54.3198C35.4316 54.2837 35.7485 54.2288 36.0256 54.156V50.5933H36.0254ZM36.0254 48.4735C36.0254 47.6135 35.8069 47.0162 35.3699 46.681C34.9326 46.3459 34.2989 46.1783 33.4684 46.1783C32.958 46.1783 32.4812 46.2186 32.0369 46.2987C31.5973 46.3776 31.1629 46.4833 30.7362 46.6152C30.4592 46.1344 30.3212 45.5593 30.3212 44.8886C30.816 44.7285 31.3623 44.6047 31.96 44.5173C32.5573 44.4297 33.1328 44.386 33.6867 44.386C35.1437 44.386 36.2509 44.7177 37.0087 45.3806C37.7661 46.0441 38.1453 47.104 38.1453 48.5608V55.5765C37.635 55.6931 37.016 55.8132 36.2875 55.9371C35.551 56.0615 34.8052 56.1237 34.0583 56.1229C33.3444 56.1229 32.6994 56.0576 32.1241 55.9264C31.5484 55.795 31.0603 55.5842 30.6597 55.2923C30.2586 55.0012 29.9495 54.6295 29.7306 54.178C29.5122 53.7262 29.4028 53.1799 29.4028 52.5387C29.4028 51.9124 29.5303 51.3622 29.7853 50.8884C30.0359 50.4203 30.3912 50.0164 30.8236 49.7083C31.2607 49.3955 31.7633 49.162 32.3316 49.0092C32.9 48.8561 33.4972 48.7795 34.1237 48.7795C34.59 48.7795 34.9724 48.7907 35.2712 48.8126C35.5697 48.8342 35.8212 48.8598 36.0252 48.889V48.4737L36.0254 48.4735ZM42.6694 54.0244C42.9453 54.1264 43.2309 54.1996 43.5219 54.2431C43.8132 54.287 44.1917 54.3088 44.6584 54.3088C45.1828 54.3088 45.6635 54.2252 46.1005 54.0576C46.5378 53.8904 46.9129 53.6315 47.2262 53.2816C47.5394 52.9321 47.787 52.4916 47.9692 51.9592C48.1513 51.4277 48.2426 50.7978 48.2426 50.0689C48.2426 48.9033 48.0274 47.9781 47.5978 47.2932C47.1677 46.6085 46.4647 46.2661 45.4888 46.2661C45.1246 46.2661 44.7746 46.3315 44.44 46.4628C44.1044 46.5939 43.8059 46.7907 43.5436 47.0529C43.2814 47.3151 43.0702 47.6468 42.91 48.0474C42.7493 48.4485 42.6695 48.9252 42.6695 49.479V54.0248V54.0246L42.6694 54.0244ZM40.5056 44.6483C40.6538 44.6191 40.8032 44.5973 40.9537 44.5828C41.1099 44.5684 41.2668 44.5612 41.4237 44.5612C41.5689 44.5612 41.7218 44.5687 41.8824 44.5828C42.0425 44.5977 42.1955 44.6197 42.3414 44.6484C42.3557 44.678 42.3742 44.7687 42.3961 44.9218C42.4178 45.0749 42.4397 45.2387 42.4617 45.4133C42.4835 45.5883 42.5053 45.7562 42.5272 45.9161C42.5491 46.0766 42.56 46.1786 42.56 46.2223C42.7054 45.9894 42.8804 45.7633 43.0844 45.5448C43.2885 45.3261 43.5328 45.1295 43.8169 44.9548C44.101 44.7798 44.4213 44.6416 44.7785 44.5394C45.1353 44.4375 45.5324 44.3861 45.9695 44.3861C46.625 44.3861 47.2335 44.4955 47.7947 44.7142C48.3553 44.933 48.8358 45.2713 49.2368 45.7304C49.6373 46.1894 49.9504 46.7723 50.1765 47.4788C50.4022 48.186 50.5151 49.0201 50.5151 49.9815C50.5151 51.9047 49.9941 53.4095 48.9521 54.4948C47.9102 55.5804 46.4354 56.1229 44.5267 56.1229C44.206 56.1229 43.8783 56.1011 43.5432 56.0574C43.2078 56.0135 42.9166 55.9551 42.6688 55.8826V61.0188C42.4842 61.0488 42.2983 61.0707 42.1118 61.0843C41.9149 61.0986 41.7363 61.106 41.576 61.106C41.3973 61.1052 41.2188 61.098 41.0406 61.0843C40.8612 61.0716 40.6825 61.0498 40.5053 61.0188V44.6484L40.5056 44.6483Z" fill="#FF4A00"/>
</g>
<defs>
<clipPath id="clip0_1_310">
<rect width="57" height="26.106" fill="white" transform="translate(19 35)"/>
</clipPath>
</defs>
</svg>
