<svg width="96" height="96" viewBox="0 0 96 96" fill="none" xmlns="http://www.w3.org/2000/svg">
<rect width="96" height="96" fill="white"/>
<g clip-path="url(#clip0_1_226)">
<path d="M38.5 28L26 36.1L34.7 43.1L47.2 35.3L38.5 28ZM26 49.9L38.5 58.1L47.2 50.8L34.7 43.1L26 49.9ZM47.2 50.8L56 58.1L68.4 50L59.8 43.1L47.2 50.8ZM68.4 36.1L56 28L47.2 35.3L59.8 43.1L68.4 36.1ZM47.3 52.4L38.5 59.7L34.8 57.2V60L47.3 67.5L59.8 60V57.2L56 59.7L47.3 52.4Z" fill="#007EE5"/>
</g>
<defs>
<clipPath id="clip0_1_226">
<rect width="43" height="40" fill="white" transform="translate(26 28)"/>
</clipPath>
</defs>
</svg>
