<svg width="96" height="96" viewBox="0 0 96 96" fill="none" xmlns="http://www.w3.org/2000/svg">
<rect width="96" height="96" fill="white"/>
<g clip-path="url(#clip0_1_163)">
<path d="M41.5024 67.9925C45.0896 67.9925 48.0011 65.081 48.0011 61.4937V54.995H41.5024C37.9151 54.995 35.0037 57.9064 35.0037 61.4937C35.0037 65.081 37.9151 67.9925 41.5024 67.9925Z" fill="#0ACF83"/>
<path d="M35.0037 48.4959C35.0037 44.9086 37.9151 41.9971 41.5024 41.9971H48.0011V54.9946H41.5024C37.9151 54.9946 35.0037 52.0832 35.0037 48.4959Z" fill="#A259FF"/>
<path d="M35.002 35.4987C35.002 31.9114 37.9134 29 41.5007 29H47.9994V41.9975H41.5007C37.9134 41.9975 35.002 39.086 35.002 35.4987Z" fill="#F24E1E"/>
<path d="M48.0015 29H54.5002C58.0874 29 60.9989 31.9114 60.9989 35.4987C60.9989 39.086 58.0874 41.9975 54.5002 41.9975H48.0015V29Z" fill="#FF7262"/>
<path d="M60.9989 48.4959C60.9989 52.0832 58.0874 54.9946 54.5002 54.9946C50.9129 54.9946 48.0015 52.0832 48.0015 48.4959C48.0015 44.9086 50.9129 41.9971 54.5002 41.9971C58.0874 41.9971 60.9989 44.9086 60.9989 48.4959Z" fill="#1ABCFE"/>
</g>
<defs>
<clipPath id="clip0_1_163">
<rect width="26" height="38.9924" fill="white" transform="translate(35 29)"/>
</clipPath>
</defs>
</svg>
