<svg width="96" height="96" viewBox="0 0 96 96" fill="none" xmlns="http://www.w3.org/2000/svg">
<rect width="96" height="96" fill="white"/>
<mask id="mask0_1_105" style="mask-type:luminance" maskUnits="userSpaceOnUse" x="12" y="23" width="73" height="51">
<path d="M12 23H84.9399V73.9507H12V23Z" fill="white"/>
</mask>
<g mask="url(#mask0_1_105)">
<path fill-rule="evenodd" clip-rule="evenodd" d="M42.286 28.5777C44.6405 26.1267 47.9174 24.6089 51.5376 24.6089C56.3645 24.6089 60.5478 27.2906 62.8004 31.2862C64.7999 30.3923 66.9656 29.9308 69.1558 29.9319C77.8443 29.9319 84.8969 37.0382 84.8969 45.8071C84.8969 54.576 77.8443 61.6823 69.1558 61.6823C68.0939 61.6823 67.0588 61.5756 66.0452 61.3739C64.0742 64.8868 60.3065 67.2734 56.0159 67.2734C54.2691 67.2769 52.5446 66.8806 50.9745 66.115C48.9767 70.8078 44.3241 74.1062 38.9072 74.1062C33.249 74.1062 28.4489 70.5397 26.5986 65.525C25.7751 65.6988 24.9356 65.7862 24.094 65.7857C17.3631 65.7857 11.9194 60.2616 11.9194 53.4771C11.9194 48.9183 14.3704 44.9495 18.0067 42.8042C17.2353 41.0271 16.8382 39.1102 16.8402 37.1728C16.8402 29.3425 23.1956 23.0139 31.0259 23.0139C35.6115 23.0139 39.7144 25.1994 42.2887 28.5917" fill="#00A1E0"/>
</g>
<path fill-rule="evenodd" clip-rule="evenodd" d="M22.5495 49.4943C22.5037 49.6139 22.5659 49.6389 22.5807 49.6601C22.7177 49.7593 22.8569 49.8312 22.9963 49.9119C23.7418 50.3061 24.4444 50.4214 25.1791 50.4214C26.6755 50.4214 27.606 49.6249 27.606 48.3431V48.3179C27.606 47.1326 26.5548 46.7009 25.5733 46.3925L25.4449 46.351C24.7021 46.1101 24.0612 45.9004 24.0612 45.4124V45.3875C24.0612 44.9691 24.4366 44.6607 25.0158 44.6607C25.6594 44.6607 26.4264 44.875 26.9171 45.1461C26.9171 45.1461 27.0624 45.24 27.1153 45.0997C27.144 45.0238 27.3942 44.3542 27.421 44.2791C27.4494 44.2006 27.3995 44.1413 27.3483 44.1107C26.7852 43.7675 26.0075 43.5342 25.203 43.5342L25.0536 43.5347C23.6833 43.5347 22.726 44.3633 22.726 45.5486V45.5741C22.726 46.8237 23.7826 47.2313 24.7694 47.5129L24.9281 47.5622C25.6468 47.7832 26.2689 47.9752 26.2689 48.4794V48.5046C26.2689 48.9685 25.864 49.3144 25.2151 49.3144C24.9627 49.3144 24.1585 49.3101 23.287 48.7593C23.1816 48.6979 23.1215 48.6537 23.0403 48.6041C22.9974 48.578 22.8901 48.5311 22.8434 48.6716L22.5485 49.4922M44.4573 49.4922C44.4114 49.6118 44.4736 49.6367 44.4889 49.6579C44.6254 49.7571 44.7651 49.829 44.9046 49.9097C45.65 50.3039 46.3526 50.4192 47.0874 50.4192C48.5837 50.4192 49.5143 49.6228 49.5143 48.341V48.3158C49.5143 47.1305 48.4657 46.6988 47.4816 46.3904L47.3531 46.3488C46.6103 46.108 45.9694 45.8983 45.9694 45.4102V45.3853C45.9694 44.967 46.3449 44.6586 46.9241 44.6586C47.5677 44.6586 48.3319 44.8729 48.8253 45.144C48.8253 45.144 48.9707 45.2378 49.0238 45.0976C49.0522 45.0217 49.3027 44.3521 49.3268 44.277C49.3555 44.1984 49.3054 44.1392 49.2544 44.1086C48.6913 43.7653 47.9136 43.532 47.1091 43.532L46.9595 43.5326C45.5892 43.5326 44.6318 44.3612 44.6318 45.5465V45.5719C44.6318 46.8216 45.6884 47.2292 46.6752 47.5108L46.8337 47.5601C47.5551 47.7811 48.1745 47.9731 48.1745 48.4772V48.5024C48.1745 48.9663 47.7696 49.3123 47.1206 49.3123C46.8678 49.3123 46.0614 49.308 45.1926 48.7572C45.0872 48.6958 45.0255 48.6534 44.9456 48.6019C44.9185 48.5847 44.7922 48.5354 44.749 48.6695L44.454 49.4901M59.4175 46.9801C59.4175 47.7041 59.2823 48.2753 59.0179 48.6802C58.754 49.0798 58.3555 49.2755 57.8005 49.2755C57.2454 49.2755 56.8485 49.0814 56.5884 48.6829C56.3264 48.2806 56.1942 47.7068 56.1942 46.9827C56.1942 46.2587 56.3272 45.6902 56.5884 45.2906C56.8479 44.8938 57.2427 44.7034 57.8005 44.7034C58.3582 44.7034 58.7551 44.8956 59.0179 45.2906C59.2839 45.6902 59.4175 46.2587 59.4175 46.9827M60.6671 45.6393C60.544 45.2236 60.3533 44.8589 60.0986 44.5532C59.8436 44.2475 59.522 44.0008 59.1386 43.8238C58.7578 43.6455 58.3073 43.5556 57.7978 43.5556C57.2883 43.5556 56.8404 43.646 56.457 43.8238C56.0762 44.0019 55.7517 44.2475 55.4969 44.5532C55.2427 44.8589 55.0518 45.2236 54.9284 45.6393C54.8064 46.0522 54.7445 46.5027 54.7445 46.9827C54.7445 47.4628 54.8064 47.9133 54.9284 48.3262C55.051 48.7419 55.2422 49.1066 55.4969 49.4123C55.752 49.718 56.0762 49.962 56.457 50.1363C56.8404 50.3101 57.2909 50.3986 57.7978 50.3986C58.3046 50.3986 58.7551 50.3101 59.1359 50.1363C59.5167 49.9626 59.8412 49.718 60.0959 49.4123C60.3504 49.1066 60.5411 48.7419 60.6644 48.3262C60.7862 47.9133 60.8481 47.4628 60.8481 46.9827C60.8481 46.5054 60.7862 46.0522 60.6644 45.6393M70.935 49.0717C70.894 48.9502 70.7754 48.9961 70.7754 48.9961C70.5939 49.0656 70.4 49.1299 70.1935 49.1621C69.9854 49.1948 69.7538 49.2112 69.5097 49.2112C68.9064 49.2112 68.4237 49.0312 68.0804 48.6748C67.7345 48.3182 67.5414 47.7443 67.5441 46.9667C67.546 46.2587 67.7171 45.7278 68.0241 45.3201C68.3271 44.9179 68.7937 44.7087 69.4105 44.7087C69.9254 44.7087 70.3196 44.7685 70.7325 44.8978C70.7325 44.8978 70.8304 44.9404 70.8773 44.8114C70.987 44.5084 71.068 44.2912 71.1857 43.9587C71.219 43.8635 71.1375 43.8233 71.1077 43.8117C70.9457 43.7484 70.5633 43.6447 70.2737 43.601C70.0029 43.5597 69.6891 43.5382 69.3352 43.5382C68.8096 43.5382 68.343 43.628 67.9434 43.8061C67.5438 43.9839 67.2059 44.2298 66.9378 44.5355C66.6696 44.8412 66.4658 45.2059 66.3291 45.6216C66.1936 46.0345 66.1253 46.4877 66.1253 46.9677C66.1253 48.0028 66.4041 48.8422 66.9566 49.4563C67.509 50.073 68.3403 50.3841 69.4236 50.3841C70.0646 50.3841 70.7215 50.2546 71.1935 50.0677C71.1935 50.0677 71.2836 50.0242 71.2445 49.9191L70.9361 49.0717M73.1216 46.2828C73.1814 45.8806 73.2916 45.5454 73.4648 45.2853C73.7242 44.8884 74.1192 44.6712 74.6742 44.6712C75.2293 44.6712 75.5967 44.8895 75.8595 45.2853C76.0338 45.5467 76.11 45.894 76.1384 46.2828L73.1082 46.2823L73.1216 46.2828ZM77.3317 45.3979C77.2253 44.9984 76.9617 44.5934 76.79 44.4084C76.5165 44.1161 76.251 43.9096 75.9856 43.797C75.6023 43.634 75.19 43.5504 74.7735 43.5511C74.2452 43.5511 73.7652 43.6404 73.3763 43.8219C72.9875 44.0048 72.6604 44.2537 72.4029 44.5647C72.1458 44.8758 71.9524 45.2432 71.8291 45.6642C71.7057 46.0798 71.6435 46.5357 71.6435 47.013C71.6435 47.5011 71.7081 47.9543 71.8352 48.3646C71.9637 48.7776 72.1704 49.1396 72.4493 49.4399C72.7282 49.7429 73.0849 49.9789 73.5139 50.1452C73.9403 50.3101 74.4578 50.3956 75.0505 50.3938C76.2733 50.3897 76.9169 50.1176 77.1797 49.9701C77.2266 49.9438 77.2709 49.8985 77.2156 49.7679L76.9394 48.9929C76.897 48.8773 76.7801 48.9191 76.7801 48.9191C76.4771 49.0323 76.048 49.2356 75.0424 49.2329C74.3854 49.2318 73.9001 49.0379 73.5944 48.7341C73.2833 48.423 73.1278 47.9698 73.1036 47.3263L77.3406 47.3295C77.3406 47.3295 77.4521 47.3284 77.4637 47.2195C77.4682 47.1745 77.6087 46.3507 77.3374 45.3987L77.3317 45.3979ZM39.2528 46.2828C39.3126 45.8806 39.4231 45.5454 39.596 45.2853C39.8556 44.8884 40.2503 44.6712 40.8054 44.6712C41.3605 44.6712 41.7279 44.8895 41.9907 45.2853C42.1648 45.5467 42.2409 45.894 42.2696 46.2828L39.2394 46.2823L39.2528 46.2828ZM43.4629 45.3979C43.3567 44.9984 43.0929 44.5934 42.9212 44.4084C42.6477 44.1161 42.3822 43.9096 42.1168 43.797C41.7335 43.634 41.3212 43.5504 40.9047 43.5511C40.3764 43.5511 39.8964 43.6404 39.5075 43.8219C39.1187 44.0048 38.7916 44.2537 38.5341 44.5647C38.2775 44.8758 38.0836 45.2432 37.9602 45.6642C37.8372 46.0798 37.7752 46.5357 37.7752 47.013C37.7752 47.5011 37.8393 47.9543 37.9672 48.3646C38.0954 48.7776 38.3024 49.1396 38.5786 49.4399C38.8575 49.7429 39.2142 49.9789 39.6432 50.1452C40.0696 50.3101 40.5845 50.3956 41.1798 50.3938C42.4026 50.3897 43.0462 50.1176 43.309 49.9701C43.3557 49.9438 43.4002 49.8985 43.3447 49.7679L43.0685 48.9929C43.0258 48.8773 42.9089 48.9191 42.9089 48.9191C42.6059 49.0323 42.1768 49.2356 41.1712 49.2329C40.5169 49.2318 40.0288 49.0379 39.7231 48.7341C39.4121 48.423 39.2565 47.9698 39.2324 47.3263L43.4694 47.3295C43.4694 47.3295 43.5809 47.3284 43.5924 47.2195C43.597 47.1745 43.7375 46.3507 43.4659 45.3987L43.4629 45.3979ZM30.1085 49.0449C29.9425 48.9124 29.9194 48.88 29.8645 48.7939C29.7805 48.6644 29.7376 48.4802 29.7376 48.2442C29.7376 47.8741 29.861 47.606 30.1157 47.4263C30.113 47.4268 30.4804 47.1099 31.3439 47.1206C31.7282 47.1275 32.1117 47.1602 32.4916 47.2185V49.1412H32.4922C32.4922 49.1412 31.9558 49.2568 31.3498 49.2932C30.489 49.345 30.1082 49.0454 30.1109 49.0462L30.1085 49.0449ZM31.7925 46.0683C31.6209 46.0557 31.3983 46.0495 31.1329 46.0495C30.7708 46.0495 30.4195 46.0946 30.0924 46.1831C29.7626 46.2721 29.4649 46.41 29.2101 46.5934C28.9547 46.7756 28.7446 47.0142 28.5961 47.2906C28.4461 47.5695 28.3697 47.8966 28.3697 48.2667C28.3697 48.6421 28.4349 48.9666 28.5636 49.2321C28.6897 49.4954 28.8796 49.7231 29.116 49.8944C29.3512 50.0655 29.6416 50.1921 29.9768 50.2672C30.3093 50.3431 30.6848 50.3814 31.0977 50.3814C31.5322 50.3814 31.9639 50.345 32.3822 50.2744C32.7385 50.213 33.0935 50.144 33.4468 50.0674C33.5879 50.035 33.7445 49.9923 33.7445 49.9923C33.8491 49.9658 33.841 49.854 33.841 49.854L33.8386 45.9924C33.8386 45.145 33.6123 44.5149 33.1655 44.126C32.7204 43.7372 32.0687 43.5414 31.224 43.5414C30.9076 43.5414 30.3954 43.5843 30.0897 43.6457C30.0897 43.6457 29.1672 43.8249 28.7864 44.1231C28.7864 44.1231 28.7028 44.1746 28.7484 44.2912L29.0487 45.0957C29.086 45.2 29.1876 45.1643 29.1876 45.1643C29.1876 45.1643 29.2195 45.1517 29.2571 45.1295C30.0696 44.687 31.0993 44.7004 31.0993 44.7004C31.5552 44.7004 31.9092 44.7929 32.1452 44.9739C32.3761 45.1512 32.4938 45.4191 32.4938 45.9822V46.1611C32.1318 46.1085 31.7966 46.0782 31.7966 46.0782L31.7925 46.0683ZM65.8491 43.8882C65.8551 43.874 65.8583 43.8588 65.8584 43.8434C65.8585 43.828 65.8555 43.8127 65.8496 43.7985C65.8436 43.7843 65.8349 43.7714 65.8239 43.7607C65.8129 43.7499 65.7998 43.7415 65.7855 43.7358C65.7134 43.7085 65.3538 43.6326 65.0776 43.6154C64.5466 43.5822 64.2516 43.6718 63.9861 43.7908C63.7239 43.9091 63.4337 44.0992 63.2728 44.3191L63.2723 43.8042C63.2723 43.7334 63.2221 43.6763 63.1508 43.6763H62.0674C61.9972 43.6763 61.9462 43.7334 61.9462 43.8042V50.106C61.9463 50.1401 61.9599 50.1727 61.9839 50.1968C62.008 50.2208 62.0406 50.2344 62.0747 50.2345H63.1849C63.2189 50.2344 63.2515 50.2208 63.2755 50.1968C63.2996 50.1727 63.313 50.14 63.313 50.106V46.9417C63.313 46.518 63.3597 46.097 63.4528 45.8315C63.5445 45.569 63.6692 45.3596 63.8228 45.2094C63.9694 45.0644 64.1488 44.9567 64.3457 44.8956C64.5306 44.8426 64.7219 44.8157 64.9142 44.8157C65.1355 44.8157 65.3782 44.8726 65.3782 44.8726C65.4597 44.8817 65.505 44.8318 65.5326 44.7583C65.6053 44.565 65.8115 43.986 65.8517 43.8707" fill="#FFFFFE"/>
<path fill-rule="evenodd" clip-rule="evenodd" d="M55.4801 40.9797C55.3429 40.9382 55.2033 40.9051 55.062 40.8805C54.8721 40.8488 54.6797 40.8339 54.4871 40.8359C53.722 40.8359 53.1189 41.0521 52.6955 41.479C52.275 41.9027 51.9889 42.5482 51.8454 43.3974L51.7937 43.6841H50.8334C50.8334 43.6841 50.7162 43.6793 50.6915 43.8072L50.5339 44.6867C50.5229 44.7709 50.5591 44.8235 50.6717 44.823H51.6065L50.658 50.1173C50.5837 50.5437 50.4987 50.8944 50.4046 51.1602C50.3118 51.4224 50.2212 51.619 50.1096 51.7617C50.0016 51.8998 49.8991 52.0014 49.7224 52.0607C49.5765 52.1097 49.4087 52.1323 49.2247 52.1323C49.1223 52.1323 48.986 52.1151 48.8855 52.095C48.7849 52.0751 48.7326 52.0526 48.6573 52.021C48.6573 52.021 48.5476 51.9791 48.5044 52.0891C48.4693 52.1789 48.2202 52.8641 48.1907 52.9488C48.1606 53.0325 48.2027 53.0984 48.2558 53.1175C48.3803 53.162 48.4728 53.1904 48.6423 53.2304C48.8777 53.2859 49.0761 53.2894 49.262 53.2894C49.6513 53.2894 50.0061 53.2347 50.3003 53.1285C50.5963 53.0215 50.8541 52.8351 51.082 52.5828C51.3284 52.3106 51.4834 52.0255 51.6317 51.6367C51.7784 51.2513 51.9034 50.7729 52.0034 50.2154L52.9564 44.823H54.3498C54.3498 44.823 54.4673 44.8273 54.4917 44.6999L54.6493 43.8203C54.6603 43.7361 54.6244 43.6836 54.5112 43.6841H53.1589C53.1656 43.6535 53.227 43.1778 53.3823 42.73C53.4485 42.5388 53.5732 42.3846 53.6789 42.2787C53.7775 42.1778 53.899 42.1022 54.0331 42.0582C54.1801 42.0128 54.3333 41.9907 54.4871 41.9928C54.6145 41.9928 54.7394 42.0081 54.8346 42.0279C54.9658 42.0558 55.0167 42.0706 55.051 42.0808C55.1889 42.1229 55.2074 42.0821 55.2345 42.0153L55.5579 41.1272C55.5911 41.0317 55.5101 40.9915 55.4801 40.9797ZM36.5817 50.1285C36.5817 50.1993 36.5313 50.257 36.4605 50.257H35.3388C35.2677 50.257 35.2173 50.1993 35.2173 50.1285V41.1001C35.2173 41.0296 35.2677 40.9724 35.3388 40.9724H36.4605C36.5313 40.9724 36.5817 41.0296 36.5817 41.1001V50.1285Z" fill="#FFFFFE"/>
</svg>
